<svg xmlns="http://www.w3.org/2000/svg" xmlns:xlink="http://www.w3.org/1999/xlink" width="500" zoomAndPan="magnify" viewBox="0 0 375 374.999991" height="500" preserveAspectRatio="xMidYMid meet" version="1.0"><defs><clipPath id="de969fadfc"><path d="M 81.136719 96 L 294.136719 96 L 294.136719 337.5 L 81.136719 337.5 Z M 81.136719 96 " clip-rule="nonzero"/></clipPath><clipPath id="729844078e"><path d="M 101 37.5 L 141 37.5 L 141 78 L 101 78 Z M 101 37.5 " clip-rule="nonzero"/></clipPath><clipPath id="c408260afe"><path d="M 146 37.5 L 184 37.5 L 184 78 L 146 78 Z M 146 37.5 " clip-rule="nonzero"/></clipPath><clipPath id="b8b2d154e2"><path d="M 189 37.5 L 236 37.5 L 236 78 L 189 78 Z M 189 37.5 " clip-rule="nonzero"/></clipPath><clipPath id="501a00e699"><path d="M 242 37.5 L 275 37.5 L 275 78 L 242 78 Z M 242 37.5 " clip-rule="nonzero"/></clipPath></defs><g clip-path="url(#de969fadfc)"><path fill="#e44d26" d="M 294.082031 96.457031 L 274.695312 313.363281 L 187.542969 337.488281 L 100.636719 313.394531 L 81.269531 96.457031 L 294.078125 96.453125 L 294.085938 96.453125 Z M 294.082031 96.457031 " fill-opacity="1" fill-rule="nonzero"/></g><path fill="#f16529" d="M 187.679688 319.046875 L 258.101562 299.550781 L 274.667969 114.195312 L 187.679688 114.191406 Z M 187.679688 319.046875 " fill-opacity="1" fill-rule="nonzero"/><path fill="#ebebeb" d="M 149.988281 167.40625 L 187.679688 167.40625 L 187.679688 140.796875 L 120.871094 140.796875 L 121.511719 147.9375 L 128.058594 221.257812 L 187.679688 221.257812 L 187.679688 194.65625 L 152.421875 194.65625 Z M 149.988281 167.40625 " fill-opacity="1" fill-rule="nonzero"/><path fill="#ebebeb" d="M 155.992188 234.5625 L 129.25 234.5625 L 132.980469 276.34375 L 187.554688 291.472656 L 187.679688 291.4375 L 187.679688 263.753906 L 187.5625 263.789062 L 157.890625 255.78125 Z M 155.992188 234.5625 " fill-opacity="1" fill-rule="nonzero"/><g clip-path="url(#729844078e)"><path fill="#000000" d="M 101.070312 37.5 L 114.609375 37.5 L 114.609375 50.859375 L 126.996094 50.859375 L 126.996094 37.5 L 140.535156 37.5 L 140.535156 77.953125 L 126.996094 77.953125 L 126.996094 64.40625 L 114.609375 64.40625 L 114.609375 77.953125 L 101.070312 77.953125 Z M 101.070312 37.5 " fill-opacity="1" fill-rule="nonzero"/></g><g clip-path="url(#c408260afe)"><path fill="#000000" d="M 158.339844 50.914062 L 146.421875 50.914062 L 146.421875 37.5 L 183.808594 37.5 L 183.808594 50.914062 L 171.878906 50.914062 L 171.878906 77.953125 L 158.339844 77.953125 Z M 158.339844 50.914062 " fill-opacity="1" fill-rule="nonzero"/></g><g clip-path="url(#b8b2d154e2)"><path fill="#000000" d="M 189.738281 37.5 L 203.851562 37.5 L 212.539062 51.714844 L 221.214844 37.5 L 235.335938 37.5 L 235.335938 77.953125 L 221.855469 77.953125 L 221.855469 57.902344 L 212.539062 72.285156 L 212.304688 72.285156 L 202.984375 57.902344 L 202.984375 77.953125 L 189.738281 77.953125 Z M 189.738281 37.5 " fill-opacity="1" fill-rule="nonzero"/></g><g clip-path="url(#501a00e699)"><path fill="#000000" d="M 242.078125 37.5 L 255.617188 37.5 L 255.617188 64.582031 L 274.660156 64.582031 L 274.660156 77.953125 L 242.078125 77.953125 Z M 242.078125 37.5 " fill-opacity="1" fill-rule="nonzero"/></g><path fill="#ffffff" d="M 187.585938 221.257812 L 220.394531 221.257812 L 217.300781 255.765625 L 187.585938 263.777344 L 187.585938 291.453125 L 242.203125 276.34375 L 242.601562 271.84375 L 248.867188 201.796875 L 249.515625 194.65625 L 187.585938 194.65625 Z M 187.585938 221.257812 " fill-opacity="1" fill-rule="nonzero"/><path fill="#ffffff" d="M 187.585938 167.339844 L 187.585938 167.40625 L 251.9375 167.40625 L 252.46875 161.425781 L 253.6875 147.9375 L 254.324219 140.796875 L 187.585938 140.796875 Z M 187.585938 167.339844 " fill-opacity="1" fill-rule="nonzero"/></svg>