<svg xmlns="http://www.w3.org/2000/svg" xmlns:xlink="http://www.w3.org/1999/xlink" width="500" zoomAndPan="magnify" viewBox="0 0 375 374.999991" height="500" preserveAspectRatio="xMidYMid meet" version="1.0"><defs><clipPath id="04d73062cf"><path d="M 38.007812 110.046875 L 337 110.046875 L 337 265.296875 L 38.007812 265.296875 Z M 38.007812 110.046875 " clip-rule="nonzero"/></clipPath><clipPath id="65aa3c805f"><path d="M 38.289062 187.78125 C 38.289062 230.65625 105.128906 265.417969 187.574219 265.417969 C 270.019531 265.417969 336.859375 230.65625 336.859375 187.78125 C 336.859375 144.90625 270.019531 110.148438 187.574219 110.148438 C 105.128906 110.148438 38.289062 144.90625 38.289062 187.78125 " clip-rule="nonzero"/></clipPath><clipPath id="68fe0ec071"><path d="M 38.289062 187.78125 C 38.289062 230.65625 105.128906 265.417969 187.574219 265.417969 C 270.019531 265.417969 336.859375 230.65625 336.859375 187.78125 C 336.859375 144.90625 270.019531 110.148438 187.574219 110.148438 C 105.128906 110.148438 38.289062 144.90625 38.289062 187.78125 " clip-rule="nonzero"/></clipPath><radialGradient gradientTransform="matrix(1.005737, 0, 0, 0.994263, 127.919763, 137.440097)" gradientUnits="userSpaceOnUse" r="194.916235" cx="0" id="033344fb3f" cy="0" fx="0" fy="0"><stop stop-opacity="1" stop-color="rgb(68.199158%, 69.799805%, 83.499146%)" offset="0"/><stop stop-opacity="1" stop-color="rgb(68.199158%, 69.799805%, 83.499146%)" offset="0.25"/><stop stop-opacity="1" stop-color="rgb(68.164062%, 69.764709%, 83.473206%)" offset="0.296875"/><stop stop-opacity="1" stop-color="rgb(67.956543%, 69.555664%, 83.317566%)" offset="0.300781"/><stop stop-opacity="1" stop-color="rgb(67.608643%, 69.20929%, 83.059692%)" offset="0.304688"/><stop stop-opacity="1" stop-color="rgb(67.260742%, 68.861389%, 82.800293%)" offset="0.308594"/><stop stop-opacity="1" stop-color="rgb(66.914368%, 68.513489%, 82.542419%)" offset="0.3125"/><stop stop-opacity="1" stop-color="rgb(66.566467%, 68.167114%, 82.28302%)" offset="0.316406"/><stop stop-opacity="1" stop-color="rgb(66.220093%, 67.819214%, 82.025146%)" offset="0.320312"/><stop stop-opacity="1" stop-color="rgb(65.872192%, 67.472839%, 81.765747%)" offset="0.324219"/><stop stop-opacity="1" stop-color="rgb(65.525818%, 67.124939%, 81.506348%)" offset="0.328125"/><stop stop-opacity="1" stop-color="rgb(65.177917%, 66.778564%, 81.248474%)" offset="0.332031"/><stop stop-opacity="1" stop-color="rgb(64.831543%, 66.430664%, 80.989075%)" offset="0.335938"/><stop stop-opacity="1" stop-color="rgb(64.483643%, 66.08429%, 80.731201%)" offset="0.339844"/><stop stop-opacity="1" stop-color="rgb(64.135742%, 65.736389%, 80.471802%)" offset="0.34375"/><stop stop-opacity="1" stop-color="rgb(63.789368%, 65.388489%, 80.213928%)" offset="0.347656"/><stop stop-opacity="1" stop-color="rgb(63.441467%, 65.042114%, 79.954529%)" offset="0.351562"/><stop stop-opacity="1" stop-color="rgb(63.095093%, 64.694214%, 79.696655%)" offset="0.355469"/><stop stop-opacity="1" stop-color="rgb(62.747192%, 64.347839%, 79.437256%)" offset="0.359375"/><stop stop-opacity="1" stop-color="rgb(62.400818%, 63.999939%, 79.179382%)" offset="0.363281"/><stop stop-opacity="1" stop-color="rgb(62.052917%, 63.653564%, 78.919983%)" offset="0.367188"/><stop stop-opacity="1" stop-color="rgb(61.706543%, 63.305664%, 78.662109%)" offset="0.371094"/><stop stop-opacity="1" stop-color="rgb(61.358643%, 62.95929%, 78.40271%)" offset="0.375"/><stop stop-opacity="1" stop-color="rgb(61.010742%, 62.611389%, 78.144836%)" offset="0.378906"/><stop stop-opacity="1" stop-color="rgb(60.664368%, 62.263489%, 77.885437%)" offset="0.382812"/><stop stop-opacity="1" stop-color="rgb(60.316467%, 61.917114%, 77.627563%)" offset="0.386719"/><stop stop-opacity="1" stop-color="rgb(59.970093%, 61.569214%, 77.368164%)" offset="0.390625"/><stop stop-opacity="1" stop-color="rgb(59.622192%, 61.222839%, 77.108765%)" offset="0.394531"/><stop stop-opacity="1" stop-color="rgb(59.275818%, 60.874939%, 76.850891%)" offset="0.398438"/><stop stop-opacity="1" stop-color="rgb(58.927917%, 60.528564%, 76.591492%)" offset="0.402344"/><stop stop-opacity="1" stop-color="rgb(58.581543%, 60.180664%, 76.333618%)" offset="0.40625"/><stop stop-opacity="1" stop-color="rgb(58.233643%, 59.83429%, 76.074219%)" offset="0.410156"/><stop stop-opacity="1" stop-color="rgb(57.885742%, 59.486389%, 75.816345%)" offset="0.414062"/><stop stop-opacity="1" stop-color="rgb(57.539368%, 59.138489%, 75.556946%)" offset="0.417969"/><stop stop-opacity="1" stop-color="rgb(57.191467%, 58.792114%, 75.299072%)" offset="0.421875"/><stop stop-opacity="1" stop-color="rgb(56.845093%, 58.444214%, 75.039673%)" offset="0.425781"/><stop stop-opacity="1" stop-color="rgb(56.497192%, 58.097839%, 74.781799%)" offset="0.429688"/><stop stop-opacity="1" stop-color="rgb(56.150818%, 57.749939%, 74.5224%)" offset="0.433594"/><stop stop-opacity="1" stop-color="rgb(55.802917%, 57.403564%, 74.264526%)" offset="0.4375"/><stop stop-opacity="1" stop-color="rgb(55.456543%, 57.055664%, 74.005127%)" offset="0.441406"/><stop stop-opacity="1" stop-color="rgb(55.108643%, 56.70929%, 73.747253%)" offset="0.445312"/><stop stop-opacity="1" stop-color="rgb(54.760742%, 56.361389%, 73.487854%)" offset="0.449219"/><stop stop-opacity="1" stop-color="rgb(54.414368%, 56.013489%, 73.22998%)" offset="0.453125"/><stop stop-opacity="1" stop-color="rgb(54.066467%, 55.667114%, 72.970581%)" offset="0.457031"/><stop stop-opacity="1" stop-color="rgb(53.720093%, 55.319214%, 72.711182%)" offset="0.460938"/><stop stop-opacity="1" stop-color="rgb(53.372192%, 54.972839%, 72.453308%)" offset="0.464844"/><stop stop-opacity="1" stop-color="rgb(53.025818%, 54.624939%, 72.193909%)" offset="0.46875"/><stop stop-opacity="1" stop-color="rgb(52.677917%, 54.278564%, 71.936035%)" offset="0.472656"/><stop stop-opacity="1" stop-color="rgb(52.331543%, 53.930664%, 71.676636%)" offset="0.476562"/><stop stop-opacity="1" stop-color="rgb(51.983643%, 53.58429%, 71.418762%)" offset="0.480469"/><stop stop-opacity="1" stop-color="rgb(51.635742%, 53.236389%, 71.159363%)" offset="0.484375"/><stop stop-opacity="1" stop-color="rgb(51.289368%, 52.888489%, 70.901489%)" offset="0.488281"/><stop stop-opacity="1" stop-color="rgb(50.941467%, 52.542114%, 70.64209%)" offset="0.492188"/><stop stop-opacity="1" stop-color="rgb(50.595093%, 52.194214%, 70.384216%)" offset="0.496094"/><stop stop-opacity="1" stop-color="rgb(50.247192%, 51.847839%, 70.124817%)" offset="0.5"/><stop stop-opacity="1" stop-color="rgb(49.900818%, 51.499939%, 69.866943%)" offset="0.503906"/><stop stop-opacity="1" stop-color="rgb(49.552917%, 51.153564%, 69.607544%)" offset="0.507812"/><stop stop-opacity="1" stop-color="rgb(49.206543%, 50.805664%, 69.34967%)" offset="0.511719"/><stop stop-opacity="1" stop-color="rgb(48.858643%, 50.45929%, 69.090271%)" offset="0.515625"/><stop stop-opacity="1" stop-color="rgb(48.510742%, 50.111389%, 68.832397%)" offset="0.519531"/><stop stop-opacity="1" stop-color="rgb(48.164368%, 49.763489%, 68.572998%)" offset="0.523438"/><stop stop-opacity="1" stop-color="rgb(47.816467%, 49.417114%, 68.313599%)" offset="0.527344"/><stop stop-opacity="1" stop-color="rgb(47.470093%, 49.069214%, 68.055725%)" offset="0.53125"/><stop stop-opacity="1" stop-color="rgb(47.122192%, 48.722839%, 67.796326%)" offset="0.535156"/><stop stop-opacity="1" stop-color="rgb(46.775818%, 48.374939%, 67.538452%)" offset="0.539062"/><stop stop-opacity="1" stop-color="rgb(46.427917%, 48.028564%, 67.279053%)" offset="0.542969"/><stop stop-opacity="1" stop-color="rgb(46.081543%, 47.680664%, 67.021179%)" offset="0.546875"/><stop stop-opacity="1" stop-color="rgb(45.733643%, 47.33429%, 66.76178%)" offset="0.550781"/><stop stop-opacity="1" stop-color="rgb(45.385742%, 46.986389%, 66.503906%)" offset="0.554688"/><stop stop-opacity="1" stop-color="rgb(45.039368%, 46.638489%, 66.244507%)" offset="0.558594"/><stop stop-opacity="1" stop-color="rgb(44.691467%, 46.292114%, 65.986633%)" offset="0.5625"/><stop stop-opacity="1" stop-color="rgb(44.345093%, 45.944214%, 65.727234%)" offset="0.566406"/><stop stop-opacity="1" stop-color="rgb(43.997192%, 45.597839%, 65.46936%)" offset="0.570312"/><stop stop-opacity="1" stop-color="rgb(43.650818%, 45.249939%, 65.209961%)" offset="0.574219"/><stop stop-opacity="1" stop-color="rgb(43.302917%, 44.903564%, 64.952087%)" offset="0.578125"/><stop stop-opacity="1" stop-color="rgb(42.956543%, 44.555664%, 64.692688%)" offset="0.582031"/><stop stop-opacity="1" stop-color="rgb(42.608643%, 44.20929%, 64.434814%)" offset="0.585938"/><stop stop-opacity="1" stop-color="rgb(42.260742%, 43.861389%, 64.175415%)" offset="0.589844"/><stop stop-opacity="1" stop-color="rgb(41.914368%, 43.513489%, 63.916016%)" offset="0.59375"/><stop stop-opacity="1" stop-color="rgb(41.566467%, 43.167114%, 63.658142%)" offset="0.597656"/><stop stop-opacity="1" stop-color="rgb(41.220093%, 42.819214%, 63.398743%)" offset="0.601562"/><stop stop-opacity="1" stop-color="rgb(40.872192%, 42.472839%, 63.140869%)" offset="0.605469"/><stop stop-opacity="1" stop-color="rgb(40.525818%, 42.124939%, 62.88147%)" offset="0.609375"/><stop stop-opacity="1" stop-color="rgb(40.177917%, 41.778564%, 62.623596%)" offset="0.613281"/><stop stop-opacity="1" stop-color="rgb(39.831543%, 41.430664%, 62.364197%)" offset="0.617188"/><stop stop-opacity="1" stop-color="rgb(39.483643%, 41.08429%, 62.106323%)" offset="0.621094"/><stop stop-opacity="1" stop-color="rgb(39.135742%, 40.736389%, 61.846924%)" offset="0.625"/><stop stop-opacity="1" stop-color="rgb(38.789368%, 40.388489%, 61.58905%)" offset="0.628906"/><stop stop-opacity="1" stop-color="rgb(38.441467%, 40.042114%, 61.329651%)" offset="0.632812"/><stop stop-opacity="1" stop-color="rgb(38.095093%, 39.694214%, 61.071777%)" offset="0.636719"/><stop stop-opacity="1" stop-color="rgb(37.747192%, 39.347839%, 60.812378%)" offset="0.640625"/><stop stop-opacity="1" stop-color="rgb(37.400818%, 38.999939%, 60.554504%)" offset="0.644531"/><stop stop-opacity="1" stop-color="rgb(37.052917%, 38.653564%, 60.295105%)" offset="0.648438"/><stop stop-opacity="1" stop-color="rgb(36.706543%, 38.305664%, 60.037231%)" offset="0.652344"/><stop stop-opacity="1" stop-color="rgb(36.358643%, 37.95929%, 59.777832%)" offset="0.65625"/><stop stop-opacity="1" stop-color="rgb(36.010742%, 37.611389%, 59.518433%)" offset="0.660156"/><stop stop-opacity="1" stop-color="rgb(35.664368%, 37.263489%, 59.260559%)" offset="0.664062"/><stop stop-opacity="1" stop-color="rgb(35.316467%, 36.917114%, 59.00116%)" offset="0.667969"/><stop stop-opacity="1" stop-color="rgb(34.970093%, 36.569214%, 58.743286%)" offset="0.671875"/><stop stop-opacity="1" stop-color="rgb(34.622192%, 36.222839%, 58.483887%)" offset="0.675781"/><stop stop-opacity="1" stop-color="rgb(34.275818%, 35.874939%, 58.226013%)" offset="0.679688"/><stop stop-opacity="1" stop-color="rgb(33.927917%, 35.528564%, 57.966614%)" offset="0.683594"/><stop stop-opacity="1" stop-color="rgb(33.581543%, 35.180664%, 57.70874%)" offset="0.6875"/><stop stop-opacity="1" stop-color="rgb(33.233643%, 34.83429%, 57.449341%)" offset="0.691406"/><stop stop-opacity="1" stop-color="rgb(32.885742%, 34.486389%, 57.191467%)" offset="0.695312"/><stop stop-opacity="1" stop-color="rgb(32.539368%, 34.138489%, 56.932068%)" offset="0.699219"/><stop stop-opacity="1" stop-color="rgb(32.191467%, 33.792114%, 56.674194%)" offset="0.703125"/><stop stop-opacity="1" stop-color="rgb(31.845093%, 33.444214%, 56.414795%)" offset="0.707031"/><stop stop-opacity="1" stop-color="rgb(31.497192%, 33.097839%, 56.156921%)" offset="0.710938"/><stop stop-opacity="1" stop-color="rgb(31.150818%, 32.749939%, 55.897522%)" offset="0.714844"/><stop stop-opacity="1" stop-color="rgb(30.802917%, 32.403564%, 55.639648%)" offset="0.71875"/><stop stop-opacity="1" stop-color="rgb(30.456543%, 32.055664%, 55.380249%)" offset="0.722656"/><stop stop-opacity="1" stop-color="rgb(30.108643%, 31.70929%, 55.122375%)" offset="0.726562"/><stop stop-opacity="1" stop-color="rgb(29.760742%, 31.361389%, 54.862976%)" offset="0.730469"/><stop stop-opacity="1" stop-color="rgb(29.414368%, 31.013489%, 54.603577%)" offset="0.734375"/><stop stop-opacity="1" stop-color="rgb(29.066467%, 30.667114%, 54.345703%)" offset="0.738281"/><stop stop-opacity="1" stop-color="rgb(28.720093%, 30.319214%, 54.086304%)" offset="0.742188"/><stop stop-opacity="1" stop-color="rgb(28.372192%, 29.972839%, 53.82843%)" offset="0.746094"/><stop stop-opacity="1" stop-color="rgb(28.199768%, 29.798889%, 53.69873%)" offset="1"/></radialGradient></defs><g clip-path="url(#04d73062cf)"><g clip-path="url(#65aa3c805f)"><g clip-path="url(#68fe0ec071)"><path fill="url(#033344fb3f)" d="M 38.289062 110.148438 L 38.289062 265.296875 L 336.859375 265.296875 L 336.859375 110.148438 Z M 38.289062 110.148438 " fill-rule="nonzero"/></g></g></g><path fill="#777bb3" d="M 187.574219 259.652344 C 266.800781 259.652344 331.027344 227.472656 331.027344 187.78125 C 331.027344 148.089844 266.800781 115.914062 187.574219 115.914062 C 108.347656 115.914062 44.121094 148.089844 44.121094 187.78125 C 44.121094 227.472656 108.347656 259.652344 187.574219 259.652344 " fill-opacity="1" fill-rule="nonzero"/><path fill="#000000" d="M 119.394531 196.691406 C 125.910156 196.691406 130.773438 195.503906 133.847656 193.164062 C 136.894531 190.847656 138.996094 186.832031 140.097656 181.230469 C 141.125 175.996094 140.734375 172.339844 138.933594 170.367188 C 137.09375 168.355469 133.117188 167.332031 127.113281 167.332031 L 116.703125 167.332031 L 110.929688 196.691406 Z M 85.34375 232.855469 C 84.863281 232.855469 84.402344 232.644531 84.09375 232.273438 C 83.769531 231.886719 83.65625 231.445312 83.753906 230.949219 L 99.050781 153.148438 C 99.125 152.773438 99.3125 152.464844 99.609375 152.21875 C 99.910156 151.976562 100.253906 151.855469 100.640625 151.855469 L 133.605469 151.855469 C 143.96875 151.855469 151.679688 154.628906 156.527344 160.121094 C 161.398438 165.636719 162.902344 173.34375 161 183.03125 C 160.222656 186.980469 158.890625 190.644531 157.035156 193.925781 C 155.179688 197.210938 152.722656 200.25 149.742188 202.964844 C 146.167969 206.269531 142.125 208.664062 137.734375 210.074219 C 133.414062 211.46875 127.863281 212.171875 121.238281 212.171875 L 107.890625 212.171875 L 104.078125 231.5625 C 104.003906 231.9375 103.820312 232.25 103.519531 232.492188 C 103.222656 232.734375 102.878906 232.859375 102.488281 232.859375 L 85.339844 232.859375 Z M 85.34375 232.855469 " fill-opacity="1" fill-rule="nonzero"/><path fill="#ffffff" d="M 118.039062 168.933594 L 127.113281 168.933594 C 134.359375 168.933594 136.878906 170.503906 137.734375 171.441406 C 139.152344 172.996094 139.421875 176.277344 138.507812 180.925781 C 137.484375 186.132812 135.582031 189.820312 132.863281 191.894531 C 130.074219 194.015625 125.542969 195.089844 119.394531 195.089844 L 112.898438 195.089844 L 118.042969 168.933594 Z M 133.605469 150.25 L 100.640625 150.25 C 100.265625 150.25 99.902344 150.3125 99.546875 150.441406 C 99.191406 150.566406 98.871094 150.746094 98.582031 150.984375 C 98.289062 151.21875 98.050781 151.496094 97.859375 151.816406 C 97.664062 152.136719 97.535156 152.476562 97.460938 152.84375 L 82.167969 230.648438 C 82.121094 230.878906 82.101562 231.113281 82.109375 231.351562 C 82.113281 231.585938 82.148438 231.816406 82.207031 232.046875 C 82.265625 232.277344 82.347656 232.496094 82.457031 232.707031 C 82.566406 232.917969 82.695312 233.113281 82.847656 233.296875 C 83 233.476562 83.167969 233.640625 83.359375 233.785156 C 83.546875 233.929688 83.75 234.054688 83.964844 234.15625 C 84.179688 234.257812 84.40625 234.332031 84.636719 234.382812 C 84.871094 234.433594 85.105469 234.460938 85.347656 234.460938 L 102.488281 234.460938 C 102.867188 234.460938 103.230469 234.398438 103.585938 234.273438 C 103.9375 234.148438 104.261719 233.964844 104.550781 233.730469 C 104.839844 233.492188 105.082031 233.214844 105.273438 232.894531 C 105.464844 232.578125 105.597656 232.234375 105.671875 231.871094 L 109.226562 213.777344 L 121.242188 213.777344 C 128.035156 213.777344 133.753906 213.042969 138.238281 211.601562 C 142.851562 210.121094 147.09375 207.609375 150.847656 204.136719 C 153.953125 201.3125 156.519531 198.140625 158.453125 194.710938 C 160.382812 191.28125 161.78125 187.453125 162.589844 183.339844 C 164.597656 173.144531 162.96875 164.976562 157.75 159.070312 C 152.578125 153.222656 144.457031 150.253906 133.609375 150.253906 M 108.96875 198.296875 L 119.398438 198.296875 C 126.308594 198.296875 131.457031 197.011719 134.839844 194.4375 C 138.222656 191.859375 140.503906 187.5625 141.691406 181.539062 C 142.824219 175.757812 142.308594 171.679688 140.140625 169.300781 C 137.972656 166.921875 133.628906 165.734375 127.117188 165.734375 L 115.371094 165.734375 L 108.96875 198.296875 M 133.609375 153.457031 C 143.527344 153.457031 150.761719 156.03125 155.308594 161.175781 C 159.855469 166.324219 161.226562 173.507812 159.410156 182.726562 C 158.664062 186.527344 157.402344 190 155.625 193.148438 C 153.84375 196.296875 151.519531 199.175781 148.644531 201.785156 C 145.222656 204.953125 141.421875 207.210938 137.234375 208.554688 C 133.050781 209.902344 127.722656 210.574219 121.242188 210.574219 L 106.558594 210.574219 L 102.492188 231.257812 L 85.347656 231.257812 L 100.644531 153.464844 L 133.613281 153.464844 " fill-opacity="1" fill-rule="nonzero"/><path fill="#000000" d="M 200.304688 212.171875 C 199.820312 212.171875 199.363281 211.957031 199.054688 211.585938 C 198.75 211.21875 198.621094 210.734375 198.714844 210.265625 L 205.480469 175.839844 C 206.125 172.566406 205.964844 170.214844 205.035156 169.222656 C 204.464844 168.617188 202.753906 167.597656 197.6875 167.597656 L 185.429688 167.597656 L 176.921875 210.875 C 176.847656 211.25 176.664062 211.5625 176.363281 211.804688 C 176.0625 212.046875 175.71875 212.171875 175.332031 212.171875 L 158.324219 212.171875 C 158.082031 212.171875 157.851562 212.121094 157.632812 212.015625 C 157.414062 211.914062 157.226562 211.773438 157.074219 211.585938 C 156.921875 211.402344 156.8125 211.195312 156.753906 210.964844 C 156.695312 210.730469 156.6875 210.5 156.734375 210.261719 L 172.03125 132.464844 C 172.105469 132.085938 172.289062 131.777344 172.589844 131.535156 C 172.890625 131.289062 173.230469 131.167969 173.621094 131.167969 L 190.628906 131.167969 C 190.871094 131.167969 191.101562 131.21875 191.320312 131.320312 C 191.539062 131.421875 191.722656 131.566406 191.878906 131.75 C 192.03125 131.933594 192.140625 132.144531 192.199219 132.375 C 192.257812 132.605469 192.265625 132.839844 192.21875 133.074219 L 188.527344 151.851562 L 201.714844 151.851562 C 211.761719 151.851562 218.570312 153.601562 222.539062 157.207031 C 226.589844 160.878906 227.847656 166.753906 226.292969 174.671875 L 219.175781 210.875 C 219.101562 211.25 218.914062 211.5625 218.613281 211.804688 C 218.316406 212.050781 217.972656 212.171875 217.585938 212.171875 Z M 200.304688 212.171875 " fill-opacity="1" fill-rule="nonzero"/><path fill="#ffffff" d="M 190.628906 129.566406 L 173.621094 129.566406 C 173.246094 129.566406 172.878906 129.628906 172.527344 129.753906 C 172.171875 129.878906 171.851562 130.0625 171.558594 130.296875 C 171.269531 130.535156 171.027344 130.8125 170.835938 131.132812 C 170.644531 131.453125 170.511719 131.792969 170.441406 132.160156 L 155.144531 209.957031 C 155.097656 210.191406 155.082031 210.425781 155.085938 210.660156 C 155.09375 210.894531 155.125 211.128906 155.183594 211.359375 C 155.246094 211.585938 155.328125 211.804688 155.4375 212.015625 C 155.542969 212.226562 155.671875 212.425781 155.824219 212.605469 C 155.976562 212.789062 156.148438 212.953125 156.335938 213.097656 C 156.523438 213.242188 156.726562 213.363281 156.945312 213.464844 C 157.160156 213.566406 157.382812 213.644531 157.617188 213.695312 C 157.851562 213.746094 158.085938 213.773438 158.324219 213.773438 L 175.332031 213.773438 C 175.710938 213.773438 176.074219 213.707031 176.429688 213.582031 C 176.78125 213.457031 177.105469 213.277344 177.394531 213.039062 C 177.683594 212.804688 177.925781 212.527344 178.117188 212.207031 C 178.308594 211.886719 178.441406 211.546875 178.515625 211.179688 L 186.765625 169.199219 L 197.6875 169.199219 C 202.746094 169.199219 203.804688 170.269531 203.847656 170.3125 C 204.15625 170.640625 204.558594 172.148438 203.894531 175.535156 L 197.128906 209.957031 C 197.082031 210.191406 197.0625 210.425781 197.070312 210.660156 C 197.074219 210.894531 197.109375 211.128906 197.167969 211.359375 C 197.226562 211.585938 197.308594 211.804688 197.417969 212.015625 C 197.527344 212.226562 197.65625 212.425781 197.808594 212.605469 C 197.960938 212.789062 198.128906 212.953125 198.320312 213.097656 C 198.507812 213.242188 198.710938 213.363281 198.925781 213.464844 C 199.140625 213.566406 199.367188 213.644531 199.601562 213.695312 C 199.832031 213.746094 200.070312 213.773438 200.308594 213.773438 L 217.585938 213.773438 C 217.960938 213.773438 218.328125 213.707031 218.679688 213.582031 C 219.035156 213.457031 219.355469 213.277344 219.648438 213.039062 C 219.9375 212.804688 220.179688 212.527344 220.371094 212.207031 C 220.5625 211.886719 220.695312 211.546875 220.765625 211.179688 L 227.882812 174.976562 C 229.554688 166.476562 228.125 160.101562 223.640625 156.027344 C 219.359375 152.140625 212.1875 150.25 201.71875 150.25 L 190.496094 150.25 L 193.8125 133.378906 C 193.855469 133.148438 193.875 132.914062 193.871094 132.679688 C 193.863281 132.441406 193.832031 132.210938 193.769531 131.980469 C 193.710938 131.75 193.628906 131.53125 193.519531 131.320312 C 193.414062 131.109375 193.28125 130.914062 193.132812 130.730469 C 192.980469 130.550781 192.808594 130.386719 192.621094 130.242188 C 192.433594 130.097656 192.230469 129.972656 192.011719 129.871094 C 191.796875 129.769531 191.574219 129.695312 191.339844 129.644531 C 191.105469 129.59375 190.871094 129.566406 190.632812 129.566406 M 190.632812 132.769531 L 186.566406 153.453125 L 201.71875 153.453125 C 211.25 153.453125 217.828125 155.097656 221.449219 158.382812 C 225.066406 161.671875 226.148438 167 224.703125 174.363281 L 217.585938 210.570312 L 200.308594 210.570312 L 207.074219 176.144531 C 207.84375 172.230469 207.5625 169.558594 206.226562 168.132812 C 204.886719 166.710938 202.042969 165.996094 197.691406 165.996094 L 184.09375 165.996094 L 175.332031 210.570312 L 158.324219 210.570312 L 173.621094 132.769531 L 190.628906 132.769531 " fill-opacity="1" fill-rule="nonzero"/><path fill="#000000" d="M 253.203125 196.691406 C 259.71875 196.691406 264.582031 195.503906 267.660156 193.164062 C 270.703125 190.847656 272.804688 186.832031 273.910156 181.230469 C 274.9375 175.996094 274.542969 172.339844 272.746094 170.367188 C 270.90625 168.355469 266.929688 167.332031 260.921875 167.332031 L 250.511719 167.332031 L 244.742188 196.691406 Z M 219.152344 232.855469 C 218.671875 232.855469 218.210938 232.640625 217.90625 232.273438 C 217.582031 231.882812 217.46875 231.441406 217.5625 230.949219 L 232.859375 153.148438 C 232.933594 152.773438 233.121094 152.460938 233.417969 152.21875 C 233.71875 151.972656 234.0625 151.851562 234.449219 151.851562 L 267.414062 151.851562 C 277.777344 151.851562 285.488281 154.628906 290.335938 160.121094 C 295.207031 165.632812 296.710938 173.339844 294.808594 183.03125 C 294.03125 186.976562 292.699219 190.640625 290.84375 193.925781 C 288.988281 197.210938 286.53125 200.25 283.550781 202.960938 C 279.976562 206.265625 275.933594 208.664062 271.542969 210.074219 C 267.222656 211.464844 261.671875 212.171875 255.046875 212.171875 L 241.691406 212.171875 L 237.878906 231.558594 C 237.804688 231.9375 237.617188 232.246094 237.320312 232.492188 C 237.019531 232.734375 236.675781 232.855469 236.289062 232.855469 L 219.144531 232.855469 Z M 219.152344 232.855469 " fill-opacity="1" fill-rule="nonzero"/><path fill="#ffffff" d="M 251.847656 168.933594 L 260.925781 168.933594 C 268.171875 168.933594 270.6875 170.503906 271.542969 171.441406 C 272.964844 172.996094 273.230469 176.277344 272.320312 180.925781 C 271.292969 186.128906 269.394531 189.820312 266.671875 191.894531 C 263.882812 194.015625 259.351562 195.089844 253.207031 195.089844 L 246.707031 195.089844 L 251.851562 168.933594 Z M 267.414062 150.25 L 234.449219 150.25 C 234.074219 150.25 233.707031 150.3125 233.355469 150.441406 C 233 150.566406 232.679688 150.746094 232.390625 150.984375 C 232.097656 151.21875 231.859375 151.496094 231.664062 151.816406 C 231.472656 152.136719 231.339844 152.476562 231.269531 152.84375 L 215.972656 230.648438 C 215.925781 230.878906 215.910156 231.113281 215.914062 231.351562 C 215.921875 231.585938 215.953125 231.816406 216.011719 232.046875 C 216.074219 232.277344 216.15625 232.496094 216.265625 232.707031 C 216.371094 232.917969 216.5 233.113281 216.652344 233.296875 C 216.804688 233.476562 216.976562 233.640625 217.164062 233.785156 C 217.351562 233.929688 217.554688 234.054688 217.769531 234.15625 C 217.988281 234.257812 218.210938 234.332031 218.445312 234.382812 C 218.679688 234.433594 218.914062 234.460938 219.152344 234.460938 L 236.296875 234.460938 C 236.671875 234.460938 237.039062 234.398438 237.390625 234.273438 C 237.746094 234.148438 238.066406 233.964844 238.355469 233.730469 C 238.648438 233.492188 238.886719 233.214844 239.082031 232.894531 C 239.273438 232.578125 239.40625 232.234375 239.476562 231.871094 L 243.035156 213.777344 L 255.046875 213.777344 C 261.839844 213.777344 267.558594 213.042969 272.046875 211.601562 C 276.65625 210.121094 280.898438 207.609375 284.65625 204.136719 C 287.761719 201.3125 290.320312 198.140625 292.257812 194.710938 C 294.195312 191.28125 295.589844 187.453125 296.398438 183.339844 C 298.402344 173.140625 296.773438 164.976562 291.554688 159.070312 C 286.386719 153.222656 278.265625 150.253906 267.414062 150.253906 M 242.777344 198.296875 L 253.203125 198.296875 C 260.117188 198.296875 265.265625 197.011719 268.648438 194.4375 C 272.027344 191.859375 274.3125 187.5625 275.496094 181.539062 C 276.632812 175.757812 276.117188 171.679688 273.949219 169.300781 C 271.78125 166.921875 267.4375 165.734375 260.925781 165.734375 L 249.179688 165.734375 L 242.777344 198.296875 M 267.414062 153.457031 C 277.332031 153.457031 284.566406 156.03125 289.117188 161.175781 C 293.664062 166.324219 295.03125 173.507812 293.21875 182.726562 C 292.472656 186.527344 291.207031 190 289.429688 193.148438 C 287.652344 196.296875 285.324219 199.175781 282.453125 201.785156 C 279.027344 204.953125 275.226562 207.210938 271.042969 208.554688 C 266.855469 209.902344 261.527344 210.574219 255.046875 210.574219 L 240.363281 210.574219 L 236.296875 231.257812 L 219.15625 231.257812 L 234.449219 153.457031 L 267.417969 153.457031 " fill-opacity="1" fill-rule="nonzero"/></svg>